# xmcd
#
# Track frame offsets:
#	150
#	10395
#	26135
#	35432
#	45577
#	64766
#	76316
#	84714
#	102036
#	113948
#	129337
#	147199
#	161582
#
# Disc length: 2263 seconds
#
# Revision: 0
# Processed by: cddbd v1.4PL0 Copyright (c) Steve Scherf et al.
# Submitted via: EasyCDDAExtractor 4.6.9.1
#
DISCID=a408d50d
DTITLE=Cockman Family - A Cockman Family Christmas - Maker Of The Stars
DYEAR=2002
DGENRE=Christmas
TTITLE0=Joy To The World
TTITLE1=Maker Of The Stars
TTITLE2=Away In A Manger
TTITLE3=Christmas Time At Home
TTITLE4=Angels Unaware
TTITLE5=Bethlehem, Bethlehem
TTITLE6=In The Stable
TTITLE7=Beautiful Star Of Bethlehem
TTITLE8=There's A Light
TTITLE9=Silent Night
TTITLE10=Christmas Lullaby
TTITLE11=O Holy Night
TTITLE12=Go Tell It On The Mountain
EXTD=
EXTT0=
EXTT1=
EXTT2=
EXTT3=
EXTT4=
EXTT5=
EXTT6=
EXTT7=
EXTT8=
EXTT9=
EXTT10=
EXTT11=
EXTT12=
PLAYORDER=
